<?xml version="1.0" encoding="UTF-8"?>
<svg version="1.1" xmlns="http://www.w3.org/2000/svg" width="48" height="48">
<path d="M0 0 C0.74121094 0.19722656 1.48242188 0.39445313 2.24609375 0.59765625 C-2.7158548 6.59266622 -8.10156865 12.06192662 -13.62890625 17.53515625 C-14.50804687 18.40978516 -15.3871875 19.28441406 -16.29296875 20.18554688 C-18.44434085 22.32522673 -20.59802417 24.46252222 -22.75390625 26.59765625 C-25.61449535 25.2382854 -27.61318324 23.95245156 -29.75390625 21.59765625 C-24.67502271 10.30421854 -12.92149201 -1.88207778 0 0 Z " fill="#4FE5FF" transform="translate(34.75390625,3.40234375)"/>
<path d="M0 0 C-0.93590504 1.1055189 -1.87379858 2.20935453 -2.8125 3.3125 C-3.33457031 3.92738281 -3.85664062 4.54226562 -4.39453125 5.17578125 C-5.87172469 6.85424679 -7.40039131 8.43882034 -9 10 C-7.59485853 13.21479335 -5.91260164 15.28043342 -3.375 17.6875 C-2.23390906 18.77502953 -1.10425021 19.875082 0 21 C0 21.33 0 21.66 0 22 C-6.02293005 22.84962963 -10.98147493 23.45456294 -16.08984375 19.7734375 C-18.54297381 17.27455322 -20.82809241 14.74552653 -23 12 C-18.03670906 1.14432918 -11.5380393 -1.26637017 0 0 Z " fill="#4FE5FF" transform="translate(37,22)"/>
<path d="M0 0 C4.18108045 3.45743191 7.67741961 6.685056 11 11 C8.91846065 11.13536022 6.83438794 11.23215465 4.75 11.3125 C3.58984375 11.37050781 2.4296875 11.42851563 1.234375 11.48828125 C-2 11 -2 11 -4.421875 8.48046875 C-4.94265625 7.66191406 -5.4634375 6.84335937 -6 6 C-4.02 4.02 -2.04 2.04 0 0 Z " fill="#0274CC" transform="translate(26,33)"/>
<path d="M0 0 C2.88437779 1.29299694 4.87219421 2.65941363 7 5 C5.70700306 7.88437779 4.34058637 9.87219421 2 12 C-0.88437779 10.70700306 -2.87219421 9.34058637 -5 7 C-3.70700306 4.11562221 -2.34058637 2.12780579 0 0 Z " fill="#35C0EE" transform="translate(19,27)"/>
<path d="M0 0 C0.99 0.99 1.98 1.98 3 3 C0.69 4.98 -1.62 6.96 -4 9 C-4.66 8.01 -5.32 7.02 -6 6 C-4.02 4.02 -2.04 2.04 0 0 Z " fill="#0869B7" transform="translate(26,33)"/>
</svg>
